<svg xmlns="http://www.w3.org/2000/svg" width="208" height="156" viewBox="0 0 208 156" role="img" aria-labelledby="title">
  <title id="title">Physiological sensing, AI persuasion, and user experience</title>
  <rect width="208" height="156" fill="#f8fafc"/>
  <rect x="18" y="20" width="172" height="116" rx="8" fill="#ffffff" stroke="#d8e1ea"/>
  <circle cx="65" cy="58" r="20" fill="#f2f6f9" stroke="#c9d5df" stroke-width="4"/>
  <path d="M55 58h6l5-12 8 25 5-13h9" fill="none" stroke="#d47a45" stroke-width="4" stroke-linecap="round" stroke-linejoin="round"/>
  <rect x="42" y="88" width="46" height="30" rx="8" fill="#267cb9"/>
  <circle cx="58" cy="103" r="4" fill="#ffffff"/>
  <circle cx="73" cy="103" r="4" fill="#ffffff"/>
  <path d="M57 112c5 4 12 4 17 0" fill="none" stroke="#ffffff" stroke-width="3" stroke-linecap="round"/>
  <path d="M103 79h24" stroke="#9aa9b8" stroke-width="4" stroke-linecap="round"/>
  <path d="M120 69l10 10-10 10" fill="none" stroke="#9aa9b8" stroke-width="4" stroke-linecap="round" stroke-linejoin="round"/>
  <rect x="138" y="44" width="34" height="70" rx="12" fill="#f3f7fb" stroke="#cfd9e2"/>
  <circle cx="155" cy="66" r="8" fill="#5f9f7a"/>
  <path d="M146 88h18M146 99h14" stroke="#267cb9" stroke-width="4" stroke-linecap="round"/>
  <circle cx="155" cy="120" r="5" fill="#6c63a8"/>
</svg>
